# xmcd
#
# Track frame offsets:
#	150
#	20799
#	39296
#	57151
#	68944
#	86664
#	101171
#	118486
#	136784
#	150167
#	164478
#	182889
#	197690
#	217814
#	235363
#
# Disc length: 3464 seconds
#
# Revision: 11
# Processed by: cddbd v1.5.2PL0 Copyright (c) Steve Scherf et al.
# Submitted via: EasyCDDAExtractor 16.0.9.1
#
DISCID=d00d860f
DTITLE=Daniel - Quando O Coração Se Apaixona
DYEAR=2000
DGENRE=Sertanejo
TTITLE0=Seus Beijos
TTITLE1=Embriagado De Amor
TTITLE2=Quando O Coração Se Apaixona
TTITLE3=Carro E Mulher
TTITLE4=As Marcas Da Paixão
TTITLE5=Pode Passar O Rodo
TTITLE6=Perigoso Demais
TTITLE7=Um Beijo Pra Me Enlouquecer
TTITLE8=Tampa Da Panela
TTITLE9=Show De Bola
TTITLE10=Meu Lamento É Chorar
TTITLE11=Já Tô No Grude
TTITLE12=Essa Moça
TTITLE13=Tá Faltando Alguém
TTITLE14=Nossa Senhora
EXTD=YEAR: 2000 ID3G:  13
EXTT0=
EXTT1=
EXTT2=
EXTT3=
EXTT4=
EXTT5=
EXTT6=
EXTT7=
EXTT8=
EXTT9=
EXTT10=
EXTT11=
EXTT12=
EXTT13=
EXTT14=
PLAYORDER=
